<?xml version="1.0" encoding="utf-8"?>
<!-- Generator: Adobe Illustrator 13.0.0, SVG Export Plug-In  -->
<!DOCTYPE svg PUBLIC "-//W3C//DTD SVG 1.1//EN" "http://www.w3.org/Graphics/SVG/1.1/DTD/svg11.dtd" [
	<!ENTITY ns_flows "http://ns.adobe.com/Flows/1.0/">
]>
<svg version="1.1"
	 xmlns="http://www.w3.org/2000/svg" xmlns:xlink="http://www.w3.org/1999/xlink" xmlns:a="http://ns.adobe.com/AdobeSVGViewerExtensions/3.0/"
	 x="0px" y="0px" width="256px" height="285px" viewBox="0 0 256 285" enable-background="new 0 0 256 285" xml:space="preserve">
<defs>
</defs>
<rect fill="#FFFFFF" width="256" height="285"/>
<polygon fill="#3D5567" points="18.287,18.288 18.287,82.93 26.97,126.001 191.088,42.623 196.447,18.288 "/>
<polygon fill="#3D5567" points="227.641,22.247 202.842,33.707 205.031,23.283 "/>
<path fill="#F37920" d="M231.346,18.495c-0.586-0.189-1.258-0.208-1.998-0.208h-32.898c-0.23,0-0.527,0.011-0.895,0.034
	c-0.129,0.008-0.262,0.018-0.395,0.028c-1.875,0.149-5.191,0.585-10.068,1.47c-0.006,2.522-0.166,5.135-0.805,7.648
	c-0.865,3.562-3.674,7.097-5.529,10.081c1.492-3.045,2.316-7.381,2.758-10.619c0.312-2.133,0.258-4.259,0.059-6.444
	c-2.828,0.555-6.07,1.236-9.742,2.066c-0.477,2.512-0.566,5.12-0.484,7.892c0.1,3.416,0.148,7.177-0.756,10.732
	c-0.861,3.561-3.674,7.099-5.529,10.08c1.492-3.044,2.316-7.378,2.758-10.616c0.475-3.246,0.113-6.468-0.338-9.92
	c-0.299-2.24-0.5-4.637-0.434-7.062c-0.82,0.194-1.643,0.391-2.5,0.598c-1.545,0.375-3.066,0.759-4.576,1.146
	c-1.109,2.148-2.012,4.333-2.617,6.613c-0.84,3.064-0.986,6.248-0.887,9.681c0.098,3.416,0.148,7.178-0.758,10.734
	c-0.863,3.561-3.672,7.097-5.527,10.081c1.49-3.046,2.316-7.379,2.758-10.617c0.475-3.247,0.109-6.467-0.34-9.919
	c-0.457-3.438-0.697-7.243-0.074-10.955c0.172-1.085,0.572-2.568,0.953-3.881C117.587,37.14,91.685,50.86,65.858,63.341
	c-7.907,3.822-12.522,20.231-17.647,30.608l-16.792,4.534l11.552,57.046l82.965,0.002l34.783-49.672
	c-3.461-8.899-2.656-17.208-1.611-20.77c1.365,21.507,13.965,31.751,27.768,37.332c-2.012,0.398-4.324,0.416-8.547-1.543
	c0,0,6.775,16.43,8.414,21.574c0.871,2.746-0.26,5.779,1.346,8.961c0.943,1.867,5.125,3.787,9.537,3.902
	c11.535,0.301,16.875-5.469,19.109-8.211c2.514-3.082,5.375-7.575,5.375-12.934l-0.039-70.026c0.102-3.337-0.314-5.213-1.336-7.48
	l-3.156-9.521c-2.236,2.691-6.941,5.811-7.684,5.404c4.691-4.026,5.146-12.409,3.598-9.771c-1.32,2.257-6.715,7.177-7.906,6.281
	c2.162-1.854,4.209-4.757,5.5-7.426c0.238-0.496-0.027-0.91-0.582-1.267c0-0.001,0-0.003,0-0.004l-0.176-0.101
	c-0.033-0.02-0.066-0.039-0.102-0.058l-7.352-4.213l10.691,2.497h0.002c0,0,16.041-10.425,18.9-12.811
	C235.309,23.309,234.455,19.505,231.346,18.495 M207.938,26.918l-3.232,3.901l0.721-6.034c0.246-0.509,0.746-0.865,1.334-0.869
	l16.91-0.152L207.938,26.918z"/>
<path fill="#F37920" d="M38.413,180.736c0,2.258-1.006,3.311-3.167,3.311h-4.678v-10.809h4.678c2.839,0,3.167,1.848,3.167,3.234
	V180.736z M30.568,195.391h5.906c1.34,0,3.581,0.488,3.581,3.766v3.957c0,2.65-1.007,3.686-3.581,3.686h-5.906V195.391z
	 M46.94,188.887c2.47-2.221,3.76-5.391,3.76-9.293v-3.803c0-8.83-5.482-13.893-15.045-13.893h-15.89
	c-0.821,0-1.487,0.664-1.487,1.488v53.271c0,0.822,0.666,1.492,1.487,1.492h16.709c9.937,0,15.871-5.453,15.871-14.58v-3.961
	C52.346,195.041,50.447,191.309,46.94,188.887"/>
<path fill="#F37920" d="M76.997,176.863v4.875c0,3.127-1.349,3.762-3.377,3.762h-5.088v-12.322h5.088
	C74.453,173.178,76.997,173.178,76.997,176.863 M88.25,200.426c-0.552-4.223-1.886-7.275-4.064-9.254
	c3.35-2.324,5.105-6.164,5.105-11.266v-3.498c0-9.131-5.554-14.584-14.848-14.584H57.726c-0.823,0-1.489,0.664-1.489,1.488v53.297
	c0,0.822,0.666,1.488,1.489,1.488h9.316c0.823,0,1.49-0.666,1.49-1.488v-19.756h3.375c2.338,0,3.797,0.23,4.342,4.689l1.645,15.229
	c0.084,0.754,0.723,1.326,1.482,1.326h9.315c0.427,0,0.833-0.18,1.112-0.498c0.282-0.322,0.416-0.744,0.364-1.166L88.25,200.426z"/>
<path fill="#F37920" d="M114.374,203.057c0,2.611-1.752,4.299-4.47,4.299s-4.473-1.688-4.473-4.299v-26.193
	c0-2.613,1.755-4.297,4.473-4.297s4.47,1.684,4.47,4.297V203.057z M109.904,161.135c-9.872,0-16.768,6.473-16.768,15.729v26.193
	c0,9.26,6.896,15.729,16.768,15.729c9.871,0,16.767-6.469,16.767-15.729v-26.193C126.671,167.607,119.775,161.135,109.904,161.135"
	/>
<path fill="#F37920" d="M151.828,203.057c0,2.611-1.756,4.299-4.473,4.299s-4.475-1.688-4.475-4.299v-26.193
	c0-2.613,1.758-4.297,4.475-4.297s4.473,1.684,4.473,4.297V203.057z M147.355,161.135c-9.871,0-16.766,6.473-16.766,15.729v26.193
	c0,9.26,6.895,15.729,16.766,15.729c9.869,0,16.766-6.469,16.766-15.729v-26.193C164.121,167.607,157.225,161.135,147.355,161.135"
	/>
<path fill="#F37920" d="M205.277,215.873l-15.262-26.812l14.768-24.988c0.275-0.463,0.277-1.035,0.016-1.496
	c-0.266-0.469-0.76-0.752-1.299-0.752h-10.688c-0.535,0-1.033,0.283-1.293,0.758l-10.574,18.738v-18.008
	c0-0.824-0.666-1.488-1.488-1.488h-9.316c-0.824,0-1.492,0.664-1.492,1.488v53.297c0,0.822,0.668,1.488,1.492,1.488h9.316
	c0.822,0,1.488-0.666,1.488-1.488v-18.643l10.637,19.359c0.26,0.475,0.76,0.771,1.301,0.771h11.098c0.533,0,1.021-0.281,1.289-0.74
	C205.535,216.902,205.537,216.336,205.277,215.873"/>
<path fill="#F37920" d="M236.266,173.178c0.824,0,1.488-0.666,1.488-1.49v-8.373c0-0.822-0.664-1.492-1.488-1.492h-26.719
	c-0.824,0-1.488,0.67-1.488,1.492v53.295c0,0.822,0.664,1.49,1.488,1.49h26.719c0.824,0,1.488-0.668,1.488-1.49v-8.379
	c0-0.816-0.664-1.482-1.488-1.482h-15.91v-11.414h12.762c0.82,0,1.488-0.666,1.488-1.49v-8.377c0-0.818-0.668-1.484-1.488-1.484
	h-12.762v-10.805H236.266z"/>
<path fill="#3D5567" d="M25.186,231.07l1.463,6.191h-2.953L25.186,231.07z M23.461,225.977l-5.146,18.418h3.683l1.02-4.26h4.312
	l0.993,4.26h3.709l-4.989-18.418H23.461z"/>
<path fill="#3D5567" d="M44.84,237.863v1.881c0,2.82-2.273,4.885-5.826,4.885c-3.555,0-5.826-2.064-5.826-4.885v-8.986
	c0-2.82,2.271-4.887,5.826-4.887c3.553,0,5.826,2.066,5.826,4.887v1.881h-3.396v-1.881c0-1.201-1.098-1.986-2.43-1.986
	c-1.334,0-2.273,0.785-2.273,1.986v8.986c0,1.359,0.939,1.986,2.273,1.986c1.332,0,2.43-0.627,2.43-1.986v-1.881H44.84z"/>
<polygon fill="#3D5567" points="56.785,228.98 53.414,228.98 53.414,244.395 49.863,244.395 49.863,228.98 46.44,228.98 
	46.44,226.105 56.785,226.105 "/>
<rect x="58.763" y="226.105" fill="#3D5567" width="3.555" height="18.289"/>
<path fill="#3D5567" d="M72.764,230.758c0-1.203-0.941-1.984-2.272-1.984c-1.333,0-2.272,0.781-2.272,1.984v8.986
	c0,1.201,0.939,1.986,2.272,1.986c1.331,0,2.272-0.785,2.272-1.986V230.758z M64.664,230.758c0-2.822,2.273-4.887,5.827-4.887
	c3.552,0,5.825,2.064,5.825,4.887v8.986c0,2.822-2.273,4.885-5.825,4.885c-3.554,0-5.827-2.062-5.827-4.885V230.758z"/>
<path fill="#3D5567" d="M90.922,226.107v18.289h-3.604l-5.434-11.34c0.078,1.752,0.129,3.291,0.129,4.65v6.689h-3.344v-18.289h3.763
	l5.277,11.26c-0.104-1.723-0.131-3.24-0.131-4.572v-6.688H90.922z"/>
<polygon fill="#3D5567" points="101.853,228.98 101.853,234.389 107.286,234.389 107.286,237.262 101.853,237.262 101.853,244.395 
	98.299,244.395 98.299,226.105 108.489,226.105 108.489,228.98 "/>
<path fill="#3D5567" d="M118.306,230.758c0-1.203-0.941-1.984-2.272-1.984c-1.334,0-2.273,0.781-2.273,1.984v8.986
	c0,1.201,0.939,1.986,2.273,1.986c1.331,0,2.272-0.785,2.272-1.986V230.758z M110.207,230.758c0-2.822,2.271-4.887,5.826-4.887
	c3.551,0,5.824,2.064,5.824,4.887v8.986c0,2.822-2.273,4.885-5.824,4.885c-3.555,0-5.826-2.062-5.826-4.885V230.758z"/>
<path fill="#3D5567" d="M127.771,228.98v5.252h2.508c1.41,0,1.855-0.76,1.855-1.803v-1.672c0-0.889-0.445-1.777-1.855-1.777H127.771
	z M136.027,244.395h-3.555l-0.625-5.225c-0.236-1.725-0.965-2.064-2.22-2.064h-1.856v7.289h-3.552v-18.289h6.374
	c3.551,0,5.094,1.986,5.094,4.496v1.201c0,1.881-0.811,3.186-2.453,3.814c1.094,0.496,1.799,1.488,2.062,3.291L136.027,244.395z"/>
<polygon fill="#3D5567" points="161.535,226.107 157.383,244.525 153.801,244.525 151.449,232.221 149.1,244.525 145.547,244.525 
	141.367,226.107 145.074,226.107 147.322,238.699 149.727,226.107 153.383,226.107 155.734,238.646 158.008,226.107 "/>
<path fill="#3D5567" d="M170.9,230.758c0-1.203-0.939-1.984-2.271-1.984c-1.334,0-2.273,0.781-2.273,1.984v8.986
	c0,1.201,0.939,1.986,2.273,1.986c1.332,0,2.271-0.785,2.271-1.986V230.758z M162.801,230.758c0-2.822,2.273-4.887,5.828-4.887
	c3.551,0,5.824,2.064,5.824,4.887v8.986c0,2.822-2.273,4.885-5.824,4.885c-3.555,0-5.828-2.062-5.828-4.885V230.758z"/>
<path fill="#3D5567" d="M180.367,228.98v5.252h2.508c1.41,0,1.855-0.76,1.855-1.803v-1.672c0-0.889-0.445-1.777-1.855-1.777H180.367
	z M188.621,244.395h-3.553l-0.627-5.225c-0.234-1.725-0.965-2.064-2.219-2.064h-1.855v7.289h-3.555v-18.289h6.377
	c3.551,0,5.092,1.986,5.092,4.496v1.201c0,1.881-0.809,3.186-2.455,3.814c1.1,0.496,1.803,1.488,2.064,3.291L188.621,244.395z"/>
<polygon fill="#3D5567" points="199.395,244.395 194.273,236.008 194.273,244.395 190.721,244.395 190.721,226.105 194.273,226.105 
	194.273,234.232 199.369,226.105 203.441,226.105 197.645,234.938 203.625,244.395 "/>
<rect x="205.227" y="226.105" fill="#3D5567" width="3.555" height="18.289"/>
<path fill="#3D5567" d="M223.594,226.107v18.289h-3.604l-5.434-11.34c0.078,1.752,0.129,3.291,0.129,4.65v6.689h-3.344v-18.289
	h3.764l5.275,11.26c-0.104-1.723-0.131-3.24-0.131-4.572v-6.688H223.594z"/>
<path fill="#3D5567" d="M234.213,232.639v-1.883c0-1.199-1.098-1.984-2.43-1.984s-2.271,0.785-2.271,1.984v8.988
	c0,1.359,0.939,1.984,2.271,1.984s2.43-0.625,2.43-1.984v-1.908h-2.271v-2.873h5.668v4.781c0,2.822-2.273,4.885-5.826,4.885
	s-5.826-2.062-5.826-4.885v-8.988c0-2.82,2.273-4.883,5.826-4.883s5.826,2.062,5.826,4.883v1.883H234.213z"/>
<polygon fill="#3D5567" points="26.378,249.141 26.378,256.461 21.8,256.461 21.8,249.141 18.38,249.141 18.38,266.748 
	21.8,266.748 21.8,259.229 26.378,259.229 26.378,266.748 29.799,266.748 29.799,249.141 "/>
<path fill="#3D5567" d="M39.871,253.617c0-1.156-0.908-1.91-2.189-1.91c-1.283,0-2.188,0.754-2.188,1.91v8.654
	c0,1.156,0.904,1.912,2.188,1.912c1.281,0,2.189-0.756,2.189-1.912V253.617z M32.073,253.617c0-2.717,2.188-4.703,5.608-4.703
	s5.609,1.986,5.609,4.703v8.654c0,2.717-2.188,4.703-5.609,4.703s-5.608-1.986-5.608-4.703V253.617z"/>
<path fill="#3D5567" d="M48.985,251.908v5.055h2.416c1.357,0,1.785-0.729,1.785-1.734v-1.611c0-0.855-0.428-1.709-1.785-1.709
	H48.985z M56.936,266.748h-3.423l-0.603-5.031c-0.226-1.66-0.931-1.988-2.139-1.988h-1.786v7.02h-3.421v-17.607h6.139
	c3.42,0,4.905,1.912,4.905,4.326v1.158c0,1.811-0.78,3.068-2.364,3.672c1.056,0.479,1.734,1.432,1.986,3.17L56.936,266.748z"/>
<path fill="#3D5567" d="M69.619,262.447c0,2.74-2.239,4.527-5.686,4.527c-3.419,0-5.532-1.986-5.532-4.703v-1.812h3.27v1.812
	c0,1.307,1.057,1.91,2.339,1.91c1.309,0,2.188-0.553,2.188-1.584v-0.627c0-2.971-7.597-2.391-7.597-7.926v-0.805
	c0-2.641,1.988-4.326,5.408-4.326c3.446,0,5.433,1.986,5.433,4.703v1.812h-3.27v-1.812c0-1.156-0.854-1.91-2.163-1.91
	c-1.282,0-1.986,0.602-1.986,1.533v0.73c0,3.02,7.596,2.264,7.596,7.746V262.447z"/>
<polygon fill="#3D5567" points="71.688,249.141 71.688,266.748 81.5,266.748 81.5,263.98 75.11,263.98 75.11,259.229 
	80.342,259.229 80.342,256.461 75.11,256.461 75.11,251.908 81.5,251.908 81.5,249.141 "/>
<path fill="#3D5567" d="M94.346,262.447c0,2.74-2.239,4.527-5.684,4.527c-3.421,0-5.534-1.986-5.534-4.703v-1.812h3.271v1.812
	c0,1.307,1.056,1.91,2.34,1.91c1.307,0,2.188-0.553,2.188-1.584v-0.627c0-2.971-7.599-2.391-7.599-7.926v-0.805
	c0-2.641,1.988-4.326,5.41-4.326c3.444,0,5.433,1.986,5.433,4.703v1.812h-3.271v-1.812c0-1.156-0.854-1.91-2.161-1.91
	c-1.284,0-1.988,0.602-1.988,1.533v0.73c0,3.02,7.596,2.264,7.596,7.746V262.447z"/>
<path fill="#3D5567" d="M106.104,253.918l1.408,5.965h-2.844L106.104,253.918z M104.443,249.016l-4.957,17.732h3.547l0.98-4.102
	h4.151l0.956,4.102h3.571l-4.803-17.732H104.443z"/>
<path fill="#3D5567" d="M126.22,249.141v17.607h-3.472l-5.23-10.916c0.073,1.686,0.125,3.168,0.125,4.477v6.439h-3.22v-17.607h3.621
	l5.081,10.842c-0.1-1.66-0.125-3.119-0.125-4.402v-6.439H126.22z"/>
<path fill="#3D5567" d="M136.516,253.82c0-1.158-0.805-1.912-2.012-1.912h-2.367v12.072h2.367c1.207,0,2.012-0.578,2.012-1.912
	V253.82z M134.504,249.141c3.445,0,5.432,1.963,5.432,4.68v8.248c0,2.719-1.986,4.68-5.432,4.68h-5.787v-17.607H134.504z"/>
<path fill="#3D5567" d="M154.512,253.82c0-1.158-0.807-1.912-2.014-1.912h-2.365v12.072h2.365c1.207,0,2.014-0.578,2.014-1.912
	V253.82z M152.498,249.141c3.445,0,5.432,1.963,5.432,4.68v8.248c0,2.719-1.986,4.68-5.432,4.68h-5.787v-17.607H152.498z"/>
<path fill="#3D5567" d="M167.773,253.617c0-1.156-0.906-1.91-2.188-1.91c-1.283,0-2.189,0.754-2.189,1.91v8.654
	c0,1.156,0.906,1.912,2.189,1.912c1.281,0,2.188-0.756,2.188-1.912V253.617z M159.975,253.617c0-2.717,2.189-4.703,5.611-4.703
	c3.42,0,5.609,1.986,5.609,4.703v8.654c0,2.717-2.189,4.703-5.609,4.703c-3.422,0-5.611-1.986-5.611-4.703V253.617z"/>
<path fill="#3D5567" d="M185.266,249.141v17.607h-3.473l-5.23-10.916c0.074,1.686,0.125,3.168,0.125,4.477v6.439h-3.221v-17.607
	h3.623l5.08,10.842c-0.1-1.66-0.127-3.119-0.127-4.402v-6.439H185.266z"/>
<polygon fill="#3D5567" points="196.088,249.141 191.184,256.963 191.184,249.141 187.764,249.141 187.764,266.748 191.184,266.748 
	191.184,258.674 196.113,266.748 200.188,266.748 194.43,257.643 200.012,249.141 "/>
<polygon fill="#3D5567" points="201.73,249.141 201.73,266.748 211.541,266.748 211.541,263.98 205.15,263.98 205.15,259.229 
	210.383,259.229 210.383,256.461 205.15,256.461 205.15,251.908 211.541,251.908 211.541,249.141 "/>
<polygon fill="#3D5567" points="222.514,249.141 219.395,256.861 216.453,249.141 212.854,249.141 217.684,260.258 217.684,266.748 
	221.105,266.748 221.105,260.258 226.061,249.141 "/>
<path fill="#3D5567" d="M237.914,262.447c0,2.74-2.238,4.527-5.684,4.527c-3.422,0-5.535-1.986-5.535-4.703v-1.812h3.273v1.812
	c0,1.307,1.055,1.91,2.336,1.91c1.309,0,2.191-0.553,2.191-1.584v-0.627c0-2.971-7.598-2.391-7.598-7.926v-0.805
	c0-2.641,1.984-4.326,5.406-4.326c3.447,0,5.434,1.986,5.434,4.703v1.812h-3.27v-1.812c0-1.156-0.855-1.91-2.164-1.91
	c-1.281,0-1.988,0.602-1.988,1.533v0.73c0,3.02,7.598,2.264,7.598,7.746V262.447z"/>
<path fill="#F37920" d="M217.875,38.191c-0.043,1.259,0.211,1.898-0.205,3.082c0.084,0.073,0.16,0.16,0.236,0.244
	c0,0,13.006-3.349,17.857-6.661c3.434-2.343,2.059-5.751-1.848-6.93L217.875,38.191z"/>
<path fill="#FFFFFF" d="M116.168,67.209c9.646-0.181,23.639-3.196,26.574-3.613c3.758-0.531,4.518-4.293,0.77-5.758l-6.262-2.492
	c-8.063,5.943-15.706,10.879-20.887,11.831C116.3,67.188,116.232,67.197,116.168,67.209"/>
<path fill="#3D5567" d="M214.41,69.073l-2.275,2.095c0.172,1.355-0.021,2.745-0.584,4.013c-0.074,0.167-0.168,0.336-0.26,0.5
	l1.885,3.156l-9.264-5.66c-1.088-0.665-0.881-1.979,0.252-2.188L214.41,69.073z"/>
<path fill="#FFFFFF" d="M216.143,140.363c-0.406-0.732-1.139-1.281-2.115-1.586c-0.641-0.199-1.055-0.671-1.086-1.228
	c-0.031-0.618,0.426-1.192,1.223-1.536c0.055-0.024,0.09-0.079,0.086-0.139c-0.004-0.059-0.043-0.11-0.1-0.129
	c-1.807-0.563-4.154,0.723-4.736,2.598c-0.615,1.963,1.502,5.213,3.293,5.771c1.965,0.615,3.271-0.424,3.654-1.646
	C216.582,141.764,216.504,141.017,216.143,140.363"/>
<path fill="#FFFFFF" d="M142.07,40.587l-46.059,4.366l-5.848,1.264c-2.394,0.688-2.755-0.955-5.39-1.042c-0.001,0-0.002,0-0.002,0
	h-0.001c0.001,0.003,0,0.006,0.001,0.009c-0.146,0.041-0.302,0.091-0.451,0.134c0.42,1.049,0.503,1.901,0.137,2.119
	c-0.418,0.25-1.281-0.402-2.104-1.512c-1.722,0.564-3.565,1.245-5.508,2.031c0.521,1.177,0.651,2.16,0.252,2.398
	c-0.429,0.256-1.328-0.438-2.17-1.603c-1.798,0.763-3.662,1.6-5.583,2.506c0.796,1.761,0.999,3.242,0.406,3.597
	c-0.621,0.37-1.915-0.61-3.135-2.279c-0.227,0.11-0.454,0.225-0.681,0.337c0.263,1.007,0.227,1.763-0.174,2.002
	c-0.424,0.253-1.163-0.124-1.978-0.921c-2.111,1.075-4.258,2.207-6.422,3.387c0.674,1.345,0.879,2.528,0.438,2.792
	c-0.45,0.269-1.42-0.502-2.297-1.772c-1.102,0.612-2.206,1.236-3.31,1.867c0.955,1.935,1.237,3.624,0.599,4.006
	c-0.642,0.383-2.009-0.685-3.267-2.466c-0.593,0.347-1.185,0.693-1.775,1.044c0.183,0.859,0.119,1.495-0.241,1.711
	c-0.362,0.216-0.952-0.03-1.623-0.6c-2.415,1.454-4.799,2.931-7.122,4.412c0.966,1.946,1.253,3.649,0.612,4.032
	c-0.631,0.376-1.958-0.645-3.196-2.366c-0.45,0.294-0.902,0.588-1.347,0.881c0.381,0.996,0.447,1.797,0.094,2.007
	c-0.342,0.205-0.987-0.201-1.662-0.964c-2.402,1.606-4.698,3.196-6.851,4.745c0.37,0.982,0.431,1.769,0.082,1.978
	c-0.332,0.197-0.943-0.172-1.593-0.884c-0.188,0.139-0.366,0.273-0.551,0.41c0.036,0.058,0.074,0.112,0.11,0.173
	c0.958,1.604,1.316,3.152,0.802,3.46c-0.513,0.306-1.698-0.736-2.652-2.329c-1.554,1.179-3.009,2.321-4.326,3.413v72.596
	l12.283,0.006v17.709l33.918-48.439c-6.29-12.011-3.376-18.949-2.448-22.019c-1.028,19.173,13.439,25.939,20.612,29.21
	c-2.845,0.123-6.025-1.182-6.025-1.182s8.138,9.555,8.604,10.894c0.472,1.339,0.379,4.849,2.693,6.784
	c10.227,8.547,20.356,1.066,23.646-2.293c2.645-2.697,5.033-5.411,5.033-11.597l0.032-49.531c0.113-2.886-0.237-4.51-1.101-6.479
	l-1.91-3.988c-1.949,2.314-2.644,2.828-3.281,2.471c2.183-2.218,1.135-8.549-0.222-6.275c-1.158,1.941-2.325,2.653-2.908,2.14
	c1.665-1.923,4.211-6.514,4.165-8.434c-0.005,0.007-0.009,0.011-0.013,0.018c0.004-0.006,0.008-0.012,0.012-0.018
	c1.399-0.135,2.863-0.327,4.383-0.606c7.929-1.459,25.154-15.648,28.252-17.833C147.113,43.876,146.074,40.181,142.07,40.587
	 M111.354,140.767c0.33,0.596,0.401,1.278,0.2,1.923c-0.349,1.119-1.541,2.064-3.337,1.504c-1.636-0.509-3.569-3.479-3.01-5.271
	c0.535-1.712,2.679-2.888,4.327-2.373c0.052,0.018,0.089,0.063,0.092,0.118s-0.028,0.105-0.078,0.126
	c-0.729,0.315-1.146,0.838-1.116,1.402c0.026,0.509,0.406,0.938,0.99,1.121C110.316,139.596,110.984,140.097,111.354,140.767
	 M110.462,89.024l-2.044,1.88c0.155,1.22-0.02,2.467-0.523,3.604c-0.067,0.151-0.153,0.303-0.234,0.45l1.693,2.836l-8.32-5.085
	c-0.976-0.596-0.792-1.777,0.225-1.964L110.462,89.024z M101.526,52.654l-3.518,5.142l0.202-7.469
	c0.237-0.658,0.815-1.147,1.531-1.219l20.693-2.088L101.526,52.654z"/>
</svg>
